<?xml version="1.0" standalone="no"?>
<!DOCTYPE svg PUBLIC "-//W3C//DTD SVG 20010904//EN"
 "http://www.w3.org/TR/2001/REC-SVG-20010904/DTD/svg10.dtd">
<svg version="1.0" xmlns="http://www.w3.org/2000/svg"
 width="512.000000pt" height="512.000000pt" viewBox="0 0 512.000000 512.000000"
 preserveAspectRatio="xMidYMid meet">
<metadata>
Created by potrace 1.14, written by Peter Selinger 2001-2017
</metadata>
<g transform="translate(0.000000,512.000000) scale(0.100000,-0.100000)"
fill="#000000" stroke="none">
<path d="M580 2565 l0 -1025 105 0 105 0 2 513 3 512 73 3 72 3 0 89 0 90 -75
0 -75 0 0 330 0 329 93 3 92 3 3 88 3 87 -201 0 -200 0 0 -1025z"/>
<path d="M3577 3288 c-10 -167 -25 -427 -32 -578 -8 -151 -19 -340 -25 -420
-5 -80 -14 -242 -20 -360 -5 -118 -13 -254 -16 -302 l-7 -88 111 0 110 0 6
143 c13 294 17 337 32 337 8 0 17 -6 19 -12 3 -7 8 -114 13 -238 l7 -225 109
-3 109 -3 -7 158 c-3 87 -15 309 -26 493 -29 503 -50 877 -65 1150 -8 135 -14
246 -14 248 -1 1 -65 2 -144 2 l-143 0 -17 -302z m173 -973 c2 -99 1 -110 -15
-114 -17 -3 -18 5 -12 110 4 63 8 150 8 194 l2 80 7 -80 c4 -44 9 -129 10
-190z"/>
<path d="M4030 2565 l0 -1025 110 0 110 0 0 495 0 495 24 0 c57 0 56 11 56
-511 l0 -479 110 0 111 0 -3 488 c-3 483 -3 487 -25 529 l-23 42 23 38 c22 38
22 42 22 418 0 373 0 381 -22 425 -25 50 -73 88 -130 101 -21 5 -111 9 -200 9
l-163 0 0 -1025z m294 829 c3 -9 6 -167 6 -353 0 -249 -3 -340 -12 -349 -7 -7
-25 -12 -40 -12 l-28 0 0 365 0 365 34 0 c22 0 36 -6 40 -16z"/>
<path d="M1020 2528 c0 -798 1 -845 19 -884 59 -130 264 -167 379 -68 77 65
72 2 72 948 l0 846 -105 0 c-58 0 -106 -1 -107 -2 -1 -2 -5 -376 -8 -833 -3
-546 -8 -829 -15 -828 -6 2 -12 259 -16 730 -3 401 -7 774 -8 831 l-1 102
-105 0 -105 0 0 -842z"/>
<path d="M1570 2455 l0 -915 110 0 110 0 0 420 c0 352 2 420 14 420 8 0 17 -7
20 -16 3 -9 6 -198 6 -420 l0 -405 108 3 107 3 3 360 c4 420 -1 491 -32 537
l-22 33 22 33 c32 47 37 121 32 450 -5 314 -8 329 -66 371 -44 31 -104 40
-264 41 l-148 0 0 -915z m254 719 c8 -20 8 -568 0 -588 -3 -9 -12 -16 -20 -16
-12 0 -14 52 -14 310 0 258 2 310 14 310 8 0 17 -7 20 -16z"/>
<path d="M2120 2455 l0 -915 100 0 100 0 1 343 c1 227 4 327 10 297 5 -25 18
-90 29 -145 11 -55 31 -161 46 -235 14 -74 31 -162 38 -195 l12 -60 87 -3 87
-3 0 916 0 915 -94 0 c-76 0 -95 -3 -100 -16 -3 -9 -7 -158 -7 -332 -1 -174
-3 -308 -5 -297 -2 11 -14 67 -25 125 -11 58 -31 157 -44 220 -13 63 -31 157
-41 208 l-18 92 -88 0 -88 0 0 -915z"/>
<path d="M2730 2455 l0 -915 110 0 110 0 0 915 0 915 -110 0 -110 0 0 -915z"/>
<path d="M2980 3280 l0 -90 75 0 75 0 0 -825 0 -825 110 0 110 0 0 825 0 824
73 3 72 3 3 65 c2 35 0 75 -3 87 l-5 23 -255 0 -255 0 0 -90z"/>
</g>
</svg>
